<?xml version="1.0" standalone="no"?>
<!DOCTYPE svg PUBLIC "-//W3C//DTD SVG 20010904//EN"
 "http://www.w3.org/TR/2001/REC-SVG-20010904/DTD/svg10.dtd">
<svg version="1.0" xmlns="http://www.w3.org/2000/svg"
 width="260.000000pt" height="260.000000pt" viewBox="0 0 260.000000 260.000000"
 preserveAspectRatio="xMidYMid meet">
<metadata>
Created by potrace 1.11, written by Peter Selinger 2001-2013
</metadata>
<g transform="translate(0.000000,260.000000) scale(0.100000,-0.100000)"
fill="#000000" stroke="none">
<path d="M720 1782 c-110 -37 -181 -91 -242 -186 -58 -90 -80 -171 -81 -296
-1 -248 112 -420 316 -482 101 -30 230 -23 318 19 35 17 81 44 101 61 44 34
118 122 118 137 0 6 -41 31 -91 55 -81 40 -91 43 -100 28 -42 -75 -112 -118
-193 -118 -69 0 -95 10 -144 55 -136 123 -113 448 36 524 94 48 177 35 253
-38 25 -25 49 -53 51 -61 4 -12 23 -6 96 30 51 24 92 47 92 50 0 4 -14 28 -31
54 -41 61 -99 108 -183 147 -59 28 -82 33 -165 36 -74 2 -109 -1 -151 -15z"/>
<path d="M1340 1300 l0 -470 120 0 120 0 0 200 0 200 175 0 175 0 0 -200 0
-200 120 0 120 0 0 470 0 470 -120 0 -120 0 0 -170 0 -170 -175 0 -175 0 0
170 0 170 -120 0 -120 0 0 -470z"/>
</g>
</svg>
