<?xml version="1.0" encoding="UTF-8"?>
<!DOCTYPE svg PUBLIC "-//W3C//DTD SVG 1.1//EN" "http://www.w3.org/Graphics/SVG/1.1/DTD/svg11.dtd">
<svg version="1.1" xmlns="http://www.w3.org/2000/svg" xmlns:xlink="http://www.w3.org/1999/xlink" x="0" y="0" width="209" height="93" viewBox="0, 0, 209, 93">
  <defs>
    <clipPath id="Clip_1">
      <path d="M0,93 L208.047,93 L208.047,0.629 L0,0.629 z"/>
    </clipPath>
  </defs>
  <g id="Layer_1">
    <g>
      <g clip-path="url(#Clip_1)">
        <path d="M171.397,14.412 C168.743,18.801 168.233,23.295 168.233,28.297 C168.233,33.402 168.844,38.711 171.6,43.102 C174.256,47.389 178.645,50.147 183.75,50.147 C195.186,50.147 199.575,39.018 199.575,29.217 C199.575,23.906 198.86,18.395 196.104,13.698 C193.756,9.512 189.262,6.858 184.465,6.858 C178.645,6.858 174.256,9.512 171.397,14.412 z M168.233,12.676 C172.211,4.61 177.524,0.629 186.711,0.629 C195.491,0.629 200.29,4.1 205.192,12.676 C207.641,16.965 208.047,22.887 208.047,28.297 C208.047,34.525 207.028,42.184 203.149,47.287 C198.86,52.902 193.86,56.272 186.608,56.272 C178.442,56.272 172.008,53.209 168.233,45.654 L168.233,84.398 L168.219,92.959 L151.641,92.959 L151.641,86.709 L159.969,86.625 L159.961,8.288 L151.59,8.288 L151.59,2.262 L168.233,2.262 L168.233,12.676" fill="#98173B"/>
        <path d="M18.081,50.76 C30.334,50.76 34.213,40.65 34.52,30.234 C31.967,29.826 28.905,29.826 26.352,29.826 C18.286,29.826 8.788,30.133 8.788,40.752 C8.788,46.572 12.055,50.76 18.081,50.76 z M34.52,45.553 C30.946,53.518 25.739,56.785 17.059,56.785 C9.502,56.785 2.458,53.518 0.518,45.553 C-0.095,43 0.006,41.365 0.006,40.549 C0.006,28.602 9.708,24.006 20.327,24.006 C22.268,24.006 24.207,23.904 26.147,23.904 L34.52,23.904 L34.52,19.004 C34.213,15.225 33.805,12.979 30.946,10.12 C29.006,8.179 25.739,7.26 23.085,7.26 C18.59,7.26 15.528,7.771 12.465,11.549 C11.036,13.286 10.627,15.736 10.422,17.879 L1.844,17.879 C2.252,10.221 6.032,4.708 13.383,2.256 C16.344,1.236 19.305,1.133 22.471,1.133 C28.088,1.133 32.581,2.155 37.073,5.729 C41.362,9.098 42.178,13.795 42.178,19.004 L42.178,49.637 L50.655,49.637 L50.655,56.07 L34.52,56.07 L34.52,45.553" fill="#98173B"/>
      </g>
      <path d="M69.44,50.76 C81.694,50.76 85.573,40.65 85.879,30.234 C83.327,29.826 80.264,29.826 77.711,29.826 C69.645,29.826 60.147,30.133 60.147,40.752 C60.147,46.572 63.415,50.76 69.44,50.76 z M85.879,45.553 C82.305,53.518 77.098,56.785 68.419,56.785 C60.862,56.785 53.817,53.518 51.877,45.553 C51.264,43 51.366,41.365 51.366,40.549 C51.366,28.602 61.067,24.006 71.686,24.006 C73.627,24.006 75.567,23.904 77.506,23.904 L85.879,23.904 L85.879,19.004 C85.573,15.225 85.165,12.979 82.305,10.12 C80.366,8.179 77.098,7.26 74.444,7.26 C69.95,7.26 66.887,7.771 63.825,11.549 C62.395,13.286 61.987,15.736 61.782,17.879 L53.204,17.879 C53.612,10.221 57.391,4.708 64.743,2.256 C67.704,1.236 70.665,1.133 73.831,1.133 C79.448,1.133 83.94,2.155 88.432,5.729 C92.721,9.098 93.538,13.795 93.538,19.004 L93.538,49.637 L102.014,49.637 L102.014,56.07 L85.879,56.07 L85.879,45.553" fill="#98173B"/>
      <path d="M136.729,45.859 C134.176,53.721 129.583,56.785 121.106,56.785 C113.549,56.785 107.014,53.721 105.075,45.859 C104.36,43 104.36,39.834 104.36,35.443 L104.36,8.792 L95.987,8.792 L95.987,2.768 L112.631,2.768 L112.631,35.443 C112.631,42.592 113.754,50.658 122.944,50.658 C128.049,50.658 132.44,47.799 134.584,43.203 C136.422,39.426 136.729,34.422 136.729,30.338 L136.729,8.792 L127.743,8.792 L127.743,2.768 L145,2.768 L145,49.637 L153.475,49.637 L153.475,56.07 L136.729,56.07 L136.729,45.859" fill="#98173B"/>
      <path d="M40.068,69.581 L145.183,69.581 L145.183,93 L40.068,93 z" fill="#98173B"/>
      <g>
        <path d="M62.533,86.769 L62.533,82.373 L58.765,82.373 L58.765,86.769 L56.166,86.769 L56.166,76.459 L58.765,76.459 L58.765,80.183 L62.533,80.183 L62.533,76.459 L65.117,76.459 L65.117,86.769 L62.533,86.769" fill="#FFFFFE"/>
        <path d="M116.359,86.769 L116.359,82.373 L112.591,82.373 L112.591,86.769 L109.992,86.769 L109.992,76.459 L112.591,76.459 L112.591,80.183 L116.359,80.183 L116.359,76.459 L118.943,76.459 L118.943,86.769 L116.359,86.769" fill="#FFFFFE"/>
        <path d="M55.209,84.425 C54.391,85.856 52.916,87.083 50.77,87.083 C48.039,87.083 45.834,85.097 45.834,81.606 C45.834,78.555 47.908,76.146 50.828,76.146 C52.726,76.146 54.45,77.27 55.179,78.817 L53.135,79.84 C52.916,79.065 51.996,78.263 50.945,78.263 C49.28,78.263 48.404,79.811 48.404,81.534 C48.404,83.797 49.557,84.921 50.945,84.921 C52.288,84.921 52.828,83.987 53.179,83.388 L55.209,84.425" fill="#FFFFFE"/>
        <path d="M71.48,78.912 L70.21,83.265 L72.824,83.265 L71.48,78.912 z M73.919,86.769 L73.408,85.119 L69.611,85.119 L69.1,86.769 L66.355,86.769 L70.181,76.459 L72.868,76.459 L76.664,86.769 L73.919,86.769" fill="#FFFFFE"/>
        <path d="M124.785,86.769 L124.785,76.459 L127.356,76.459 L127.356,84.594 L131.385,84.594 L131.385,86.769 L124.785,86.769" fill="#FFFFFE"/>
        <path d="M132.683,86.769 L132.683,76.459 L135.254,76.459 L135.254,84.594 L139.283,84.594 L139.283,86.769 L132.683,86.769" fill="#FFFFFE"/>
        <path d="M97.339,86.769 L97.339,76.459 L99.91,76.459 L99.91,84.594 L103.939,84.594 L103.939,86.769 L97.339,86.769" fill="#FFFFFE"/>
        <path d="M120.579,76.459 L123.149,76.459 L123.149,86.77 L120.579,86.77 z" fill="#FFFFFE"/>
        <path d="M78.078,86.769 L80.663,86.769 L80.663,83.396 L82.372,83.396 C83.774,83.367 85.672,83.323 86.563,81.483 C86.797,81.001 86.913,80.446 86.913,79.877 C86.913,79.176 86.724,78.343 86.329,77.759 C85.424,76.459 83.92,76.459 82.226,76.459 L78.078,76.459 z M82.299,78.358 C83.043,78.358 84.343,78.358 84.343,79.862 C84.343,81.454 83.175,81.483 82.211,81.483 L80.663,81.483 L80.663,78.358 z" fill="#FFFFFF"/>
        <path d="M87.919,86.769 L95.994,86.769 L95.994,84.74 L90.489,84.74 L90.489,82.286 L95.206,82.286 L95.206,80.329 L90.489,80.329 L90.489,78.46 L95.542,78.46 L95.542,76.459 L87.919,76.459 z" fill="#FFFFFF"/>
      </g>
    </g>
  </g>
</svg>
