<?xml version="1.0" encoding="UTF-8"?>
<!DOCTYPE svg PUBLIC "-//W3C//DTD SVG 1.1//EN" "http://www.w3.org/Graphics/SVG/1.1/DTD/svg11.dtd">
<svg version="1.1" xmlns="http://www.w3.org/2000/svg" xmlns:xlink="http://www.w3.org/1999/xlink" x="0" y="0" width="18" height="18" viewBox="0, 0, 18, 18">
  <g id="Layer_1">
    <g>
      <path d="M4.937,15.531 C4.937,16.895 3.832,18 2.469,18 C1.105,18 -0,16.895 -0,15.531 C-0,14.168 1.105,13.063 2.469,13.063 C3.832,13.063 4.937,14.168 4.937,15.531 z" fill="#FFFFFF"/>
      <path d="M11.931,18 L8.434,18 C8.434,13.342 4.658,9.566 0,9.566 L0,6.069 C6.59,6.069 11.931,11.41 11.931,18 z" fill="#FFFFFF"/>
      <path d="M14.4,18 C14.4,10.047 7.953,3.6 0,3.6 L0,-0 C9.941,-0 18,8.059 18,18 z" fill="#FFFFFF"/>
    </g>
  </g>
</svg>
