<?xml version="1.0" encoding="UTF-8"?>
<!DOCTYPE svg PUBLIC "-//W3C//DTD SVG 1.1//EN" "http://www.w3.org/Graphics/SVG/1.1/DTD/svg11.dtd">
<svg version="1.1" xmlns="http://www.w3.org/2000/svg" xmlns:xlink="http://www.w3.org/1999/xlink" x="0" y="0" width="22.15" height="18" viewBox="0, 0, 22.15, 18">
  <g id="Layer_1">
    <path d="M6.966,18 C4.4,18 2.011,17.248 0,15.958 C0.355,16 0.717,16.022 1.084,16.022 C3.213,16.022 5.172,15.295 6.727,14.077 C4.739,14.04 3.061,12.726 2.483,10.921 C2.76,10.974 3.045,11.002 3.338,11.002 C3.752,11.002 4.153,10.947 4.535,10.843 C2.456,10.426 0.89,8.589 0.89,6.387 C0.89,6.368 0.89,6.349 0.89,6.33 C1.503,6.671 2.203,6.875 2.948,6.899 C1.729,6.084 0.927,4.693 0.927,3.116 C0.927,2.283 1.151,1.503 1.542,0.832 C3.783,3.581 7.131,5.39 10.908,5.58 C10.831,5.247 10.79,4.9 10.79,4.544 C10.79,2.035 12.825,0 15.335,0 C16.642,0 17.823,0.552 18.652,1.435 C19.687,1.231 20.659,0.853 21.537,0.332 C21.198,1.393 20.477,2.284 19.539,2.846 C20.458,2.736 21.334,2.492 22.149,2.131 C21.54,3.042 20.769,3.842 19.882,4.483 C19.89,4.678 19.895,4.874 19.895,5.071 C19.895,11.076 15.324,18 6.966,18" fill="#FFFFFF"/>
  </g>
</svg>
